<?xml version="1.0" encoding="UTF-8"?>
<svg width="35px" height="21px" viewBox="0 0 35 21" version="1.1" xmlns="http://www.w3.org/2000/svg" xmlns:xlink="http://www.w3.org/1999/xlink">
    <!-- Generator: Sketch 52.6 (67491) - http://www.bohemiancoding.com/sketch -->
    <title>Path Copy</title>
    <desc>Created with Sketch.</desc>
    <g id="Page-1" stroke="none" stroke-width="1" fill="none" fill-rule="evenodd">
        <g id="Desktop-HD-Copy-11" transform="translate(-1315.000000, -201.000000)" fill="#FFFFFF">
            <g id="chevron-down" transform="translate(1315.000000, 201.000000)">
                <path d="M17.0973913,20.5855355 C16.1892311,20.5908044 15.3163473,20.2330321 14.6715579,19.5912498 L1.00489128,5.87696407 C0.138224457,5.00727756 -0.200247481,3.73968181 0.116974571,2.5516679 C0.434196622,1.363654 1.35891909,0.435709502 2.54280795,0.117382148 C3.72669681,-0.200945207 4.98989118,0.138706076 5.85655794,1.00839264 L17.0973913,12.3569641 L28.3723913,1.45410693 C29.2291583,0.498108383 30.5469219,0.103482347 31.7856748,0.431942865 C33.0244278,0.760403384 33.9759299,1.75673472 34.2502647,3.01264964 C34.5245995,4.26856456 34.0756499,5.57293793 33.0873913,6.39124978 L19.4207246,19.6255355 C18.7959013,20.2300443 17.9652348,20.5732752 17.0973913,20.5855355 Z" id="Path-Copy" transform="translate(17.164803, 10.292796) scale(-1, -1) translate(-17.164803, -10.292796) "></path>
            </g>
        </g>
    </g>
</svg>