<?xml version="1.0" encoding="UTF-8"?>
<svg width="35px" height="21px" viewBox="0 0 35 21" version="1.1" xmlns="http://www.w3.org/2000/svg" xmlns:xlink="http://www.w3.org/1999/xlink">
    <!-- Generator: Sketch 52.6 (67491) - http://www.bohemiancoding.com/sketch -->
    <title>Path</title>
    <desc>Created with Sketch.</desc>
    <g id="Page-1" stroke="none" stroke-width="1" fill="none" fill-rule="evenodd">
        <g id="Desktop-HD-Copy-11" transform="translate(-1315.000000, -293.000000)" fill="#FFFFFF">
            <g id="chevron-down" transform="translate(1315.000000, 201.000000)">
                <path d="M14.6715579,111.59125 L1.00489128,97.8769641 C0.138224457,97.0072776 -0.200247481,95.7396818 0.116974571,94.5516679 C0.434196622,93.363654 1.35891909,92.4357095 2.54280795,92.1173821 C3.72669681,91.7990548 4.98989118,92.1387061 5.85655794,93.0083926 L17.0973913,104.356964 L28.3723913,93.4541069 C29.2291583,92.4981084 30.5469219,92.1034823 31.7856748,92.4319429 C33.0244278,92.7604034 33.9759299,93.7567347 34.2502647,95.0126496 C34.5245995,96.2685646 34.0756499,97.5729379 33.0873913,98.3912498 L19.4207246,111.625535 C18.7959013,112.230044 17.9652348,112.573275 17.0973913,112.585535 C16.1892311,112.590804 15.3163473,112.233032 14.6715579,111.59125 Z" id="Path"></path>
            </g>
        </g>
    </g>
</svg>